<?xml version="1.0" encoding="utf-8"?>
<!-- Generator: Adobe Illustrator 28.3.0, SVG Export Plug-In . SVG Version: 6.00 Build 0)  -->
<svg version="1.1" id="Layer_1" xmlns="http://www.w3.org/2000/svg" xmlns:xlink="http://www.w3.org/1999/xlink" x="0px" y="0px"
	 viewBox="0 0 1000 1000" style="enable-background:new 0 0 1000 1000;" xml:space="preserve">
<style type="text/css">
	.st0{fill:none;stroke:#90CEED;stroke-width:0;stroke-miterlimit:10;}
	.st1{fill:none;stroke:#C4CFD6;stroke-width:0;stroke-miterlimit:10;}
	.st2{fill:none;stroke:#788D9D;stroke-width:0;stroke-miterlimit:10;}
	.st3{fill:#79D80B;}
	.st4{fill:#0B5C99;}
</style>
<g>
	<path class="st0" d="M328.74,410.04c-64.1-80.67-51.15-195.27,25-261.88C433.15,78.74,556.99,89.48,624,170.85
		c57.33,69.62,57.83,162.59,5.27,236.88c-3.81,5.37-8.13,10.04-12.9,14.01c-2.91,2.41-3.16,5.07-0.75,7.98l20.33,24.5
		c2.16,2.61,4.42,2.71,6.78,0.25c124.49-130.36,64.3-343.25-111.14-387.02C432,42.54,322.97,91.74,274.83,181.99
		c-66.36,124.49-10.14,276.19,121.98,326.79c3.21,1.25,4.87,0.15,4.92-3.31l0.55-33.68c0.05-3.46-1.51-5.82-4.62-7.18
		C371.01,453.01,346.41,432.23,328.74,410.04"/>
	<path class="st1" d="M526.57,398.9c20.93-3.26,44.17-30.72,54.01-47.39c22.54-38.3,20.78-88.4-3.97-125.09
		c-44.27-65.56-139.5-71.33-190.85-9.54c-54.16,65.21-22.49,161.18,54.62,188.14"/>
	<path class="st2" d="M526.57,398.9c-0.75-0.75-1.1-1.61-1.15-2.51c-0.3-23.34-0.4-46.78-0.3-70.23c0.05-9.84-0.95-17.32-3.06-22.39
		c-13.15-31.42-59.03-33.78-74.44-3.46c-3.41,6.73-5.27,17.52-5.52,32.33c-0.45,24.25-1,48.34-1.71,72.38"/>
	<path class="st3" d="M328.74,410.04c17.67,22.19,42.27,42.97,68.92,54.56c3.11,1.36,4.67,3.71,4.62,7.18l-0.55,33.68
		c-0.05,3.46-1.71,4.57-4.92,3.31c-132.12-50.6-188.34-202.3-121.98-326.79C322.97,91.74,432,42.54,531.59,67.44
		c175.44,43.77,235.63,256.66,111.14,387.02c-2.36,2.46-4.62,2.36-6.78-0.25l-20.33-24.5c-2.41-2.91-2.16-5.57,0.75-7.98
		c4.77-3.97,9.09-8.63,12.9-14.01c52.56-74.29,52.05-167.26-5.27-236.88c-67.01-81.37-190.85-92.11-270.26-22.69
		C277.59,214.77,264.64,329.37,328.74,410.04L328.74,410.04z"/>
	<path class="st3" d="M526.57,398.9c-0.75-0.75-1.1-1.61-1.15-2.51c-0.3-23.34-0.4-46.78-0.3-70.23c0.05-9.84-0.95-17.32-3.06-22.39
		c-13.15-31.42-59.03-33.78-74.44-3.46c-3.41,6.73-5.27,17.52-5.52,32.33c-0.45,24.25-1,48.34-1.71,72.38
		c-77.1-26.96-108.78-122.93-54.62-188.14c51.35-61.79,146.58-56.02,190.85,9.54c24.75,36.69,26.5,86.79,3.97,125.09
		C570.74,368.17,547.5,395.63,526.57,398.9L526.57,398.9z"/>
	<path class="st4" d="M526.57,383.84l0.15,187.59c0,2.51,2.06,4.52,4.57,4.42l1.61-0.1c3.81-0.15,5.72-2.11,5.67-5.92
		c-0.1-30.12-0.05-59.89,0.1-89.35c0.05-14.06,2.41-24.4,7.08-31.02c13.1-18.72,48.04-15.91,57.28,6.32
		c7.18,17.37,3.01,56.67,3.11,77.76c0.05,3.61,1.86,5.57,5.47,5.87l1.31,0.15c2.36,0.2,4.37-1.66,4.47-4.02
		c0.5-16.06-2.21-38.05,5.92-50.55c10.49-16.06,39.81-14.16,47.49,3.87c5.87,13.8,3.16,43.07,3.46,59.74
		c0.05,1.56,1.15,2.86,2.71,3.11l1.86,0.3c3.87,0.65,5.77-1,5.77-4.87c0-14.41-1.61-33.78,6.73-45.03
		c14.51-19.73,46.68-8.83,46.88,18.52c0.55,68.87,0.9,137.74,1.1,206.66c0.1,42.17-2.51,70.03-46.73,79.91
		c-4.17,0.9-6.22-0.8-6.17-5.07c0.15-15.91,0.1-32.38-0.1-49.34c-0.3-24.2-15.01-31.07-37.65-31.27
		c-20.33-0.2-75.65-6.32-88.05,11.39c-8.94,12.8-6.48,37.7-5.62,53.06c0.55,9.24-6.83,17.07-16.11,17.02l-66.56-0.05
		c-2.81,0-3.51,1.2-2.06,3.61l8.38,14.06c1.46,2.46,3.66,3.71,6.53,3.71c20.13,0.05,41.11,0,62.95-0.1
		c15.91-0.05,24.45-6.93,35.49-16.62c1.1-0.95,1.66-2.11,1.66-3.56l-0.1-48.79c0-4.62,3.76-8.38,8.43-8.43l49.39-0.05
		c8.18,0,12.25,4.07,12.2,12.25l-0.15,43.97c0,1.81,0.7,3.51,2.01,4.82l18.62,18.32c1.25,1.25,2.76,1.86,4.52,1.86h36.24
		c4.52,0,8.18,3.66,8.18,8.18l0.1,41.16c0,5.07-4.12,9.19-9.19,9.14l-41.06-0.05c-4.72,0-8.58-3.87-8.58-8.58l-0.1-36.44
		c0-1.86-0.65-3.41-1.96-4.77l-17.72-17.77c-1.31-1.31-3.11-2.06-5.02-2.06c-10.24,0.05-20.43,0-30.52-0.05
		c-15.11-0.05-22.79,5.97-33.18,15.16c-1.36,1.15-2.16,2.91-2.16,4.77l-0.05,75.45c0,5.47-4.42,9.89-9.89,9.89l-76.7,0.1
		c-6.27,0-11.29-5.17-11.14-11.45c0.4-18.37,4.07-44.88-5.57-61.44c-13.3-22.89-23.39-43.82-42.67-63.2
		c-24.6-24.75-42.72-46.83-54.41-66.21c-19.23-31.83-35.74-65.06-68.82-84.33c-17.77-10.34-57.33-31.98-29.97-57.93
		c42.67-40.51,126.5,15.01,156.72,47.39c1.36,1.46,2.01,1.2,2.06-0.75l5.62-234.22c0.7-24.04,1.25-48.14,1.71-72.38
		c0.25-14.81,2.11-25.6,5.52-32.33c15.41-30.32,61.29-27.96,74.44,3.46c2.11,5.07,3.11,12.55,3.06,22.39
		c-0.1,23.44,0,46.88,0.3,70.23C525.46,382.23,525.82,383.08,526.57,383.84L526.57,383.84z"/>
	<path class="st3" d="M647.63,919.22c0,4.32-3.46,7.78-7.78,7.78h-35.44c-4.32,0-7.78-3.46-7.78-7.78v-34.94
		c0-4.32,3.46-7.78,7.78-7.78h35.44c4.32,0,7.78,3.46,7.78,7.78V919.22L647.63,919.22z"/>
</g>
</svg>
